<svg viewBox="-5 0 22 22" data-ng-attr-height="{{ vm.height || '22px' }}" data-ng-attr-width="{{ vm.width || '22px' }}" height="22px" width="22px"><g transform="translate(-321.000000, -731.000000)"><g transform="translate(315.000000, 730.000000)"><path d="M12.9203782,8.52571652 L12.9203782,6.78865773 C12.9203782,6.52789111 12.932354,6.32591052 12.9566908,6.18323012 C12.9809419,6.0403355 13.0361166,5.89979745 13.1217441,5.76105898 C13.2072434,5.62240621 13.3456932,5.52668609 13.5368797,5.47364155 C13.7283228,5.42051131 13.9827249,5.39403188 14.3003425,5.39403188 L16.0342371,5.39403188 L16.0342371,1.92 L13.2622897,1.92 C11.6583763,1.92 10.5064243,2.30120944 9.80626256,3.06362833 C9.10618642,3.82621861 8.75619112,4.94949463 8.75619112,6.43388487 L8.75619112,8.52567368 L6.68,8.52567368 L6.68,11.9999626 L8.75606281,11.9999626 L8.75606281,22.0799681 L12.9203354,22.0799681 L12.9203354,12.0000055 L15.6921117,12.0000055 L16.0584883,8.52571652 L12.9203782,8.52571652 L12.9203782,8.52571652 Z"></path></g></g></svg>