<?xml version="1.0" encoding="utf-8"?>
<!-- Generator: Adobe Illustrator 21.1.0, SVG Export Plug-In . SVG Version: 6.00 Build 0)  -->
<svg version="1.1" id="Layer_1" xmlns="http://www.w3.org/2000/svg" xmlns:xlink="http://www.w3.org/1999/xlink" x="0px" y="0px"
	 viewBox="0 0 100 90" style="enable-background:new 0 0 100 90;" xml:space="preserve">
<path d="M28.2,11c-6.2,0-12.4,2.3-17.1,7c-9.5,9.3-9.4,24.5,0,33.8l36.8,36.3c1.2,1.2,3,1.2,4.2,0C64.4,76,76.6,64,88.9,51.9
	c9.5-9.3,9.5-24.5,0-33.8c-9.5-9.3-24.7-9.3-34.2,0L50,22.6L45.3,18C40.6,13.3,34.4,11,28.2,11z M27.3,15.5c4.8,0,9.7,1.9,13.4,5.6
	l7.1,7c1.2,1.2,3.2,1.2,4.4,0l7.1-7c7.5-7.4,19.4-7.4,26.8,0c7.5,7.4,7.5,19.1,0,26.5C74.1,59.4,62,71.3,50,83.3L13.9,47.5
	c-7.5-7.4-7.5-19.1,0-26.5C17.6,17.3,22.5,15.5,27.3,15.5L27.3,15.5z"/>
</svg>
