<svg viewBox="0 0 16 16" data-ng-attr-height="{{ vm.height || '16px' }}" data-ng-attr-width="{{ vm.width || '16px' }}" height="16px" width="16px"><g stroke="none" stroke-width="1" fill="none" fill-rule="evenodd"><g transform="translate(-319.000000, -684.000000)"><g transform="translate(319.000000, 684.000000)"><g transform="translate(0.000000, 0.026698)"><path d="M7.99747619,0.00504761905 C5.82547619,0.00504761905 5.55312698,0.0142539683 4.70014286,0.0531746032 C3.84887302,0.092 3.26753968,0.227206349 2.75880952,0.424888889 C2.23290476,0.629269841 1.78690476,0.902730159 1.34230159,1.34733333 C0.897698413,1.79196825 0.624238095,2.23796825 0.419857143,2.76387302 C0.222142857,3.27257143 0.086968254,3.85393651 0.0481111111,4.7051746 C0.00919047619,5.55819048 -1.58730159e-05,5.83053968 -1.58730159e-05,8.00253968 C-1.58730159e-05,10.1745079 0.00919047619,10.4468571 0.0481111111,11.299873 C0.086968254,12.1511111 0.222142857,12.7324762 0.419857143,13.2411746 C0.624238095,13.7670794 0.897698413,14.2130794 1.34230159,14.6577143 C1.78690476,15.1023175 2.23290476,15.3757778 2.75880952,15.5801587 C3.26753968,15.7778413 3.84887302,15.9130476 4.70014286,15.951873 C5.55312698,15.9907937 5.82547619,16 7.99747619,16 C10.1694762,16 10.4418254,15.9907937 11.2948095,15.951873 C12.1460794,15.9130476 12.7274127,15.7778413 13.2361429,15.5801587 C13.7620476,15.3757778 14.2080476,15.1023175 14.6526508,14.6577143 C15.097254,14.2130794 15.3707143,13.7670794 15.5750952,13.2411746 C15.7728095,12.7324762 15.9079841,12.1511111 15.9468413,11.299873 C15.9857619,10.4468571 15.9949683,10.1745079 15.9949683,8.00253968 C15.9949683,5.83053968 15.9857619,5.55819048 15.9468413,4.7051746 C15.9079841,3.85393651 15.7728095,3.27257143 15.5750952,2.76387302 C15.3707143,2.23796825 15.097254,1.79196825 14.6526508,1.34733333 C14.2080476,0.902730159 13.7620476,0.629269841 13.2361429,0.424888889 C12.7274127,0.227206349 12.1460794,0.092 11.2948095,0.0531746032 C10.4418254,0.0142539683 10.1694762,0.00504761905 7.99747619,0.00504761905 M7.99747619,1.44603175 C10.1329048,1.44603175 10.3858254,1.45419048 11.229127,1.49266667 C12.008873,1.52822222 12.4323651,1.65850794 12.7141746,1.76803175 C13.0874444,1.91311111 13.3538571,2.0864127 13.6337302,2.36628571 C13.9135714,2.64612698 14.0869048,2.91253968 14.2319841,3.28584127 C14.3414762,3.56765079 14.4717619,3.99111111 14.5073492,4.77085714 C14.5458254,5.61415873 14.5539524,5.86711111 14.5539524,8.00253968 C14.5539524,10.1379365 14.5458254,10.3908889 14.5073492,11.2341905 C14.4717619,12.0139365 14.3414762,12.4373968 14.2319841,12.7192063 C14.0869048,13.0925079 13.9135714,13.3589206 13.6337302,13.6387619 C13.3538571,13.9186349 13.0874444,14.0919365 12.7141746,14.2370159 C12.4323651,14.3465397 12.008873,14.4768254 11.229127,14.512381 C10.3859524,14.5508571 10.1330317,14.5590159 7.99747619,14.5590159 C5.86192063,14.5590159 5.609,14.5508571 4.7658254,14.512381 C3.98607937,14.4768254 3.5625873,14.3465397 3.28077778,14.2370159 C2.90750794,14.0919365 2.64109524,13.9186349 2.36122222,13.6387619 C2.08138095,13.3589206 1.90804762,13.0925079 1.76296825,12.7192063 C1.65347619,12.4373968 1.52319048,12.0139365 1.48760317,11.2341905 C1.44912698,10.3908889 1.441,10.1379365 1.441,8.00253968 C1.441,5.86711111 1.44912698,5.61415873 1.48760317,4.77085714 C1.52319048,3.99111111 1.65347619,3.56765079 1.76296825,3.28584127 C1.90804762,2.91253968 2.08138095,2.64612698 2.36122222,2.36628571 C2.64109524,2.0864127 2.90750794,1.91311111 3.28077778,1.76803175 C3.5625873,1.65850794 3.98607937,1.52822222 4.76579365,1.49266667 C5.60912698,1.45419048 5.86204762,1.44603175 7.99747619,1.44603175" fill="#999999" mask="url(#mask-2)"></path></g><path d="M7.99747619,10.6950444 C6.52519048,10.6950444 5.33163492,9.50152063 5.33163492,8.02923492 C5.33163492,6.55691746 6.52519048,5.36339365 7.99747619,5.36339365 C9.4697619,5.36339365 10.6632857,6.55691746 10.6632857,8.02923492 C10.6632857,9.50152063 9.4697619,10.6950444 7.99747619,10.6950444 M7.99747619,3.92240952 C5.72934921,3.92240952 3.89065079,5.76107619 3.89065079,8.02923492 C3.89065079,10.2973619 5.72934921,12.1360286 7.99747619,12.1360286 C10.2656032,12.1360286 12.1043016,10.2973619 12.1043016,8.02923492 C12.1043016,5.76107619 10.2656032,3.92240952 7.99747619,3.92240952" fill="#999999"></path><path d="M13.2262476,3.76014921 C13.2262476,4.29018095 12.7965651,4.71983175 12.2665651,4.71983175 C11.7365333,4.71983175 11.3068508,4.29018095 11.3068508,3.76014921 C11.3068508,3.23011746 11.7365333,2.80046667 12.2665651,2.80046667 C12.7965651,2.80046667 13.2262476,3.23011746 13.2262476,3.76014921" fill="#999999"></path></g></g></g></svg>