<?xml version="1.0" encoding="utf-8"?>
<!-- Generator: Adobe Illustrator 21.1.0, SVG Export Plug-In . SVG Version: 6.00 Build 0)  -->
<svg version="1.1" id="Layer_1" xmlns="http://www.w3.org/2000/svg" xmlns:xlink="http://www.w3.org/1999/xlink" x="0px" y="0px"
	 viewBox="0 0 606 239" style="enable-background:new 0 0 606 239;" xml:space="preserve">
<style type="text/css">
	.st0{fill:#ED8F03;}
	.st1{fill:#FFFFFF;}
</style>
<g>
	<path class="st0" d="M29.3,178.8c14,55.8,68.6,56.5,69.3,56.5l1.2-0.2c9.6-0.5,54.8-5.7,67.8-56.2c0.2-0.8,3.7-21.1-7.8-47.1
		c-2.2-4.2-13.5-25.6-15.9-28.7c-0.2-0.3-23.8-35.6-36.4-69.5c-0.8-1.2-1.7-1.2-2.4-0.8c-1,0.5-1.3,2.4-0.3,4
		c13,33.7,35.9,68.1,36.3,68.5c1.7,2.2,9.1,16,15.5,28.2l0.2,0.2c10.8,24.6,7.6,43.9,7.4,44.5c-13,50.8-60.2,53.3-65.6,53.5
		l-0.5,0.2c-5.4-0.2-52.3-3.7-64.9-53.6c-0.2-0.8-3.2-20.2,7.6-44.5c0.2-0.2,13.5-25.3,15.9-28.3c1.3-2,34.6-50.1,43.9-88.2l0,0
		c0.8-1.7,1.3-5.7,1.3-5.9c-0.3-2-0.7-4.2-2-4.2h-0.2h-0.7l-1,4.9c-7.6,38.1-43.9,90.6-44.2,91.1c-2.5,3.4-16,28.7-16.2,29
		C25.6,157.8,29.1,178.4,29.3,178.8L29.3,178.8z"/>
	<g>
		<path class="st0" d="M46.3,153.1l0.2,4.9c0,1.7,0.2,3.2,0.3,4.9c0.2,3.2,0.7,6.4,1,9.4c0.5,3.2,1,6.2,1.9,9.3
			c0.8,3,1.7,5.9,2.9,8.8c1.2,2.9,2.5,5.6,4.2,8.1c0.8,1.3,1.7,2.5,2.7,3.7c1,1.2,2,2.4,3,3.4c1,1.2,2.4,2,3.4,3
			c1.2,0.8,2.5,1.9,3.9,2.7c2.5,1.9,5.6,3.2,8.4,4.7l-0.2,0.3c-3.2-1-6.2-2-9.1-3.5c-1.5-0.7-2.9-1.7-4.2-2.4c-1.3-1-2.7-1.9-3.9-3
			c-5.1-4.2-8.8-9.8-11.3-15.9c-2.5-6.1-3.9-12.5-4.4-19.1c-0.5-6.6-0.3-13.2,0.7-19.6L46.3,153.1z"/>
	</g>
</g>
<g>
	<path class="st1" d="M256.3,96.2c-4.3,0-8.3-0.8-12-2.3c-3.7-1.5-6.9-3.8-9.6-6.7c-2.7-2.9-4.9-6.6-6.4-10.9
		C226.8,72,226,67,226,61.5s0.8-10.5,2.5-14.8c1.7-4.3,4-8,6.8-10.9c2.8-2.9,6.1-5.2,9.8-6.7c3.7-1.5,7.6-2.3,11.6-2.3
		c2.5,0,4.8,0.2,6.8,0.5c2,0.3,3.8,0.7,5.4,1.2c1.5,0.5,2.8,1,3.9,1.4c1.1,0.5,1.9,0.9,2.5,1.3l-2.1,5.7c-1.6-1-3.6-1.9-6.1-2.8
		c-2.5-0.9-5.5-1.4-9.2-1.4c-4.2,0-7.8,0.7-10.9,2.1c-3.1,1.4-5.7,3.4-7.8,6c-2.1,2.6-3.7,5.6-4.8,9.1c-1.1,3.5-1.6,7.4-1.6,11.7
		c0,4.4,0.5,8.4,1.6,12c1.1,3.6,2.6,6.6,4.7,9.1c2,2.5,4.6,4.4,7.5,5.8c3,1.3,6.4,2,10.2,2c4.2,0,7.8-0.4,10.6-1.2
		c2.8-0.8,5-1.6,6.5-2.4l1.8,5.6c-0.4,0.3-1.2,0.7-2.3,1.1c-1.1,0.4-2.5,0.8-4.1,1.3c-1.7,0.4-3.6,0.8-5.8,1.1
		C261.5,96.1,259,96.2,256.3,96.2z"/>
	<path class="st1" d="M303.1,95.4c-1.1,0-2.4,0-3.8-0.1c-1.4-0.1-2.9-0.2-4.4-0.4c-1.5-0.2-2.9-0.4-4.3-0.6
		c-1.3-0.2-2.5-0.5-3.5-0.7v-64c1.2-0.3,2.4-0.6,3.8-0.8c1.4-0.2,2.9-0.4,4.4-0.6c1.5-0.2,3-0.3,4.4-0.3c1.4-0.1,2.8-0.1,4-0.1
		c3.6,0,7,0.3,10.2,0.9c3.2,0.6,6.1,1.5,8.5,2.9c2.4,1.3,4.4,3.1,5.8,5.3c1.4,2.2,2.2,4.9,2.2,8.2c0,3.6-0.9,6.6-2.7,9.2
		c-1.8,2.5-4.3,4.3-7.3,5.2c1.9,0.5,3.7,1.1,5.3,1.9c1.6,0.8,3,1.9,4.2,3.2s2.2,2.9,2.8,4.8s1,4.1,1,6.8c0,6.3-2.5,11.1-7.5,14.4
		S313.5,95.4,303.1,95.4z M293.7,57.2h12.7c2.4,0,4.6-0.2,6.7-0.5c2.1-0.4,4-1,5.5-1.9c1.6-0.9,2.8-2.2,3.7-3.7
		c0.9-1.6,1.3-3.6,1.3-6c0-2.2-0.5-4-1.4-5.5c-1-1.5-2.3-2.7-4.1-3.7c-1.8-1-3.9-1.6-6.3-2.1c-2.4-0.4-5.1-0.6-8.1-0.6
		c-2.4,0-4.4,0.1-6,0.2c-1.6,0.1-3,0.3-4.1,0.5V57.2z M293.7,62.8v26.3c1,0.1,2.4,0.3,4.3,0.4c1.9,0.2,3.9,0.2,5.9,0.2
		c2.9,0,5.8-0.2,8.6-0.6c2.8-0.4,5.2-1.1,7.3-2.1c2.1-1,3.8-2.4,5.1-4.2c1.3-1.8,1.9-4.1,1.9-6.9c0-2.6-0.4-4.7-1.3-6.4
		c-0.9-1.7-2.2-3-3.8-4c-1.7-1-3.7-1.7-6.1-2.1c-2.4-0.4-5.1-0.6-8-0.6H293.7z"/>
	<path class="st1" d="M400.4,61.5c0,5.7-0.9,10.7-2.7,14.9c-1.8,4.2-4.3,7.7-7.5,10.6c-3.2,2.8-7.1,4.9-11.6,6.3
		c-4.5,1.4-9.4,2.1-14.8,2.1c-2.7,0-5.5-0.1-8.4-0.4c-2.9-0.3-5.5-0.7-7.8-1.3V29.5c2.2-0.6,4.8-1.1,7.8-1.4
		c2.9-0.3,5.8-0.4,8.4-0.4c5.4,0,10.3,0.7,14.8,2.1c4.5,1.4,8.3,3.5,11.6,6.3c3.2,2.8,5.7,6.3,7.5,10.6
		C399.5,50.9,400.4,55.8,400.4,61.5z M354.2,89c0.4,0.1,1.4,0.2,2.9,0.4c1.6,0.2,4.1,0.3,7.5,0.3c4.8,0,9-0.7,12.6-2
		c3.6-1.3,6.6-3.2,9-5.6c2.4-2.4,4.3-5.4,5.5-8.9c1.2-3.5,1.8-7.4,1.8-11.8c0-4.4-0.6-8.3-1.8-11.7c-1.2-3.5-3-6.4-5.5-8.8
		c-2.4-2.4-5.4-4.3-9-5.6c-3.6-1.3-7.8-2-12.6-2c-3.5,0-6,0.1-7.5,0.3c-1.6,0.2-2.5,0.3-2.9,0.4V89z"/>
	<path class="st1" d="M496.6,61.5c0,5.7-0.8,10.7-2.5,15.1c-1.7,4.4-3.9,8-6.8,10.9c-2.8,2.9-6.2,5.1-9.9,6.6
		c-3.8,1.5-7.8,2.2-12,2.2s-8.2-0.7-12-2.2c-3.8-1.5-7.1-3.7-9.9-6.6c-2.8-2.9-5.1-6.5-6.8-10.9c-1.7-4.4-2.5-9.4-2.5-15.1
		c0-5.7,0.8-10.7,2.5-15c1.7-4.3,3.9-7.9,6.8-10.8c2.8-2.9,6.2-5.1,9.9-6.6c3.8-1.5,7.8-2.2,12-2.2s8.2,0.7,12,2.2
		c3.8,1.5,7.1,3.7,9.9,6.6c2.8,2.9,5.1,6.5,6.8,10.8C495.8,50.8,496.6,55.8,496.6,61.5z M489.7,61.5c0-4.5-0.6-8.5-1.7-12
		c-1.2-3.6-2.8-6.6-4.9-9.1s-4.7-4.4-7.6-5.7c-3-1.3-6.3-2-10-2c-3.7,0-7.1,0.7-10,2c-3,1.3-5.5,3.2-7.6,5.7s-3.7,5.5-4.9,9.1
		c-1.2,3.6-1.7,7.6-1.7,12c0,4.5,0.6,8.5,1.7,12c1.2,3.6,2.8,6.6,4.9,9.1s4.7,4.4,7.6,5.8c3,1.3,6.3,2,10,2c3.7,0,7.1-0.7,10-2
		c3-1.3,5.5-3.3,7.6-5.8s3.7-5.5,4.9-9.1C489.1,70,489.7,65.9,489.7,61.5z"/>
	<path class="st1" d="M518.5,30.2c0,1.5-0.4,2.6-1.3,3.5c-0.9,0.9-2,1.3-3.3,1.3c-1.3,0-2.4-0.4-3.3-1.3c-0.9-0.9-1.3-2-1.3-3.5
		c0-1.5,0.4-2.6,1.3-3.5c0.9-0.9,2-1.3,3.3-1.3c1.3,0,2.4,0.4,3.3,1.3C518.1,27.5,518.5,28.7,518.5,30.2z M517.1,94.8h-6.2V45.1h6.2
		V94.8z"/>
	<path class="st1" d="M546.2,95.6c-2.1-0.1-4-0.3-5.5-0.8c-1.6-0.5-2.9-1.2-3.9-2.2c-1.1-1-1.9-2.3-2.4-3.8
		c-0.5-1.6-0.8-3.5-0.8-5.9V21.4l6.2-1.2v62.4c0,1.5,0.1,2.8,0.4,3.7c0.3,0.9,0.7,1.7,1.3,2.2c0.6,0.5,1.3,0.9,2.3,1.2
		c0.9,0.3,2,0.5,3.3,0.7L546.2,95.6z"/>
	<path class="st1" d="M309,200.4c-0.6-1.6-1.6-3.7-2.7-6.3c-1.2-2.6-2.5-5.5-4-8.6c-1.5-3.1-3-6.3-4.5-9.6c-1.5-3.3-3-6.4-4.4-9.3
		c-1.4-2.9-2.7-5.4-3.8-7.6c-1.1-2.2-1.9-3.7-2.4-4.6c-0.8,8-1.5,16.7-2,26.1c-0.5,9.4-0.9,19.2-1.3,29.5h-6.4
		c0.6-12.1,1.2-23.7,2-34.8c0.7-11.1,1.6-21.7,2.7-31.8h5.8c1.9,3.2,4,6.9,6.2,11.1c2.2,4.2,4.3,8.5,6.5,13.1
		c2.1,4.5,4.2,9,6.3,13.3c2,4.4,3.8,8.3,5.3,11.9c1.5-3.5,3.3-7.5,5.3-11.9c2-4.4,4.1-8.8,6.3-13.3c2.1-4.5,4.3-8.9,6.5-13.1
		c2.2-4.2,4.2-7.9,6.2-11.1h5.5c1.1,10.1,2,20.7,2.7,31.8c0.7,11.1,1.4,22.7,2,34.8H340c-0.4-10.3-0.8-20.1-1.3-29.5
		c-0.5-9.4-1.1-18.1-2-26.1c-0.5,0.9-1.3,2.4-2.4,4.6c-1.1,2.2-2.3,4.7-3.7,7.6c-1.4,2.9-2.9,6-4.4,9.3c-1.5,3.3-3,6.5-4.5,9.6
		c-1.5,3.1-2.8,6-4,8.6c-1.2,2.6-2.1,4.7-2.7,6.3H309z"/>
	<path class="st1" d="M376.8,159.2c3.3,0,6,0.5,8.3,1.4c2.3,0.9,4.1,2.2,5.5,3.8c1.4,1.6,2.4,3.6,3.1,5.8c0.6,2.2,1,4.7,1,7.3v31.3
		c-0.6,0.2-1.6,0.4-2.8,0.6c-1.2,0.2-2.6,0.5-4.2,0.7c-1.6,0.3-3.4,0.5-5.3,0.6c-2,0.2-4,0.2-6,0.2c-2.6,0-5-0.3-7.2-0.9
		c-2.2-0.6-4.1-1.5-5.8-2.7c-1.6-1.2-2.9-2.8-3.8-4.8c-0.9-2-1.4-4.3-1.4-7.2c0-2.7,0.5-5,1.5-6.9c1-1.9,2.5-3.5,4.3-4.8
		c1.9-1.2,4.1-2.2,6.6-2.7c2.6-0.6,5.3-0.9,8.4-0.9c0.9,0,1.8,0,2.8,0.1c1,0.1,2,0.2,2.9,0.4c0.9,0.2,1.7,0.3,2.4,0.5
		c0.7,0.2,1.1,0.3,1.4,0.4v-3.1c0-1.7-0.1-3.4-0.4-5c-0.3-1.6-0.8-3.1-1.7-4.4c-0.9-1.3-2.1-2.4-3.6-3.2c-1.6-0.8-3.6-1.2-6.2-1.2
		c-3.6,0-6.4,0.3-8.2,0.8c-1.8,0.5-3.1,0.9-3.9,1.2l-0.9-5.5c1.1-0.5,2.8-1,5-1.4C370.9,159.4,373.6,159.2,376.8,159.2z
		 M377.4,205.5c2.4,0,4.6-0.1,6.4-0.2c1.8-0.2,3.4-0.4,4.7-0.6v-17.5c-0.7-0.3-1.8-0.7-3.4-1c-1.5-0.4-3.6-0.5-6.3-0.5
		c-1.5,0-3.1,0.1-4.8,0.3c-1.7,0.2-3.2,0.7-4.6,1.4c-1.4,0.7-2.6,1.7-3.5,3c-0.9,1.3-1.3,3-1.3,5.1c0,1.9,0.3,3.4,0.9,4.7
		c0.6,1.3,1.5,2.3,2.6,3.1c1.1,0.8,2.5,1.3,4,1.7C373.6,205.3,375.4,205.5,377.4,205.5z"/>
	<path class="st1" d="M416.9,227.7h-6.2v-65.7c1.9-0.6,4.2-1.2,7.1-1.8c2.9-0.6,6.5-0.9,10.9-0.9c3.6,0,7,0.6,9.9,1.8
		c3,1.2,5.5,2.9,7.7,5.1c2.1,2.2,3.8,5,5,8.2c1.2,3.2,1.8,6.8,1.8,10.8c0,3.8-0.5,7.2-1.5,10.4c-1,3.2-2.4,5.9-4.4,8.2
		c-1.9,2.3-4.3,4-7.1,5.3c-2.8,1.3-6,1.9-9.6,1.9c-3.3,0-6.1-0.5-8.5-1.4c-2.4-0.9-4.1-1.8-5.2-2.6V227.7z M416.9,201
		c0.6,0.4,1.3,0.9,2.2,1.4c0.9,0.5,1.9,1,3,1.4c1.2,0.4,2.4,0.8,3.7,1.1s2.8,0.4,4.2,0.4c3.1,0,5.6-0.5,7.7-1.6
		c2.1-1.1,3.8-2.5,5-4.3c1.3-1.8,2.2-4,2.8-6.4c0.6-2.5,0.9-5.1,0.9-7.8c0-6.5-1.6-11.5-4.9-15c-3.3-3.5-7.6-5.2-13-5.2
		c-3.1,0-5.6,0.1-7.4,0.4c-1.9,0.3-3.3,0.6-4.3,0.9V201z"/>
	<path class="st1" d="M476.8,205.6c3.6,0,6.5-0.6,8.9-1.8c2.3-1.2,3.5-3.2,3.5-6c0-1.3-0.2-2.5-0.6-3.5c-0.4-1-1.1-1.8-2.1-2.6
		c-1-0.8-2.2-1.5-3.8-2.2c-1.6-0.7-3.5-1.5-5.8-2.5c-1.9-0.8-3.6-1.6-5.3-2.4c-1.7-0.8-3.1-1.7-4.4-2.8c-1.3-1.1-2.3-2.3-3.1-3.8
		c-0.8-1.5-1.2-3.3-1.2-5.4c0-4,1.5-7.3,4.6-9.8c3-2.5,7.2-3.7,12.5-3.7c3.4,0,6.2,0.3,8.4,0.9s3.8,1.1,4.7,1.5l-1.4,5.6
		c-0.8-0.4-2.1-0.9-3.9-1.5c-1.8-0.6-4.5-1-8-1c-1.4,0-2.7,0.1-4,0.4c-1.2,0.3-2.4,0.7-3.3,1.3c-1,0.6-1.7,1.4-2.3,2.3
		c-0.6,0.9-0.9,2.1-0.9,3.4c0,1.3,0.3,2.5,0.8,3.5c0.5,1,1.3,1.8,2.3,2.5c1,0.7,2.2,1.4,3.6,2.1c1.4,0.6,3.1,1.3,4.9,2.1
		c1.9,0.8,3.8,1.5,5.5,2.3c1.8,0.8,3.3,1.8,4.7,2.9c1.3,1.1,2.4,2.5,3.3,4c0.8,1.6,1.2,3.5,1.2,5.9c0,4.5-1.7,7.9-5,10.2
		c-3.4,2.3-8,3.5-13.8,3.5c-4.4,0-7.7-0.4-10-1.1c-2.3-0.7-3.8-1.3-4.6-1.7l1.6-5.7c0.2,0.1,0.6,0.3,1.2,0.6c0.6,0.3,1.5,0.6,2.6,1
		c1.1,0.4,2.4,0.7,3.9,0.9C473,205.4,474.8,205.6,476.8,205.6z"/>
</g>
</svg>
