<svg viewBox="0 0 20 17" data-ng-attr-height="{{ vm.height || '17px' }}" data-ng-attr-width="{{ vm.width || '20px' }}" height="17px" width="20px"><g transform="translate(-318.000000, -634.000000)"><g transform="translate(316.000000, 631.000000)"><path d="M21.3,5.50784648 C20.5525108,5.8285346 19.8048527,6.02880673 19.0577013,6.10925253 C19.901593,5.60421297 20.4724076,4.89073033 20.7698071,3.96884675 C19.9978689,4.42570307 19.1742035,4.73826238 18.2982198,4.90669314 C17.5265772,4.08901003 16.5783444,3.68 15.4528879,3.68 C14.3760339,3.68 13.4578662,4.05872703 12.6980469,4.81634956 C11.9386499,5.57392997 11.5589092,6.48974853 11.5589092,7.56393159 C11.5589092,7.85248351 11.5910011,8.14920636 11.655354,8.45380533 C10.0639308,8.37365435 8.57106368,7.97483694 7.17649931,7.25735307 C5.78201939,6.53978497 4.59854408,5.58378563 3.62607338,4.38935505 C3.27242848,4.99046627 3.09554269,5.64393045 3.09554269,6.3493685 C3.09554269,7.01475213 3.25224433,7.63212099 3.56585874,8.2013066 C3.87926202,8.77040798 4.30131346,9.23130765 4.83180193,9.58408986 C4.20478423,9.55999824 3.61809262,9.39561083 3.07164262,9.09096975 L3.07164262,9.13906875 C3.07164262,10.0770836 3.36701529,10.9006212 3.95767618,11.6103132 C4.54842152,12.3199209 5.29392609,12.7665846 6.19402098,12.9510624 C5.85642206,13.0391316 5.51476941,13.0832294 5.16923195,13.0832294 C4.944166,13.0832294 4.69900035,13.0632232 4.43381945,13.0234215 C4.68295437,13.8008817 5.14110926,14.4399836 5.80811522,14.9412746 C6.47524786,15.442313 7.23076005,15.7005819 8.07469403,15.717008 C6.66019886,16.8231167 5.04876044,17.376171 3.24037875,17.376171 C2.89471461,17.376171 2.58135355,17.3604609 2.3,17.3281984 C4.10842392,18.4904927 6.10162993,19.0716399 8.27974473,19.0716399 C9.66214794,19.0716399 10.9601831,18.8534254 12.1734279,18.4164068 C13.3872639,17.979683 14.4239607,17.394324 15.2840251,16.6606667 C16.1438362,15.9271779 16.8854559,15.0834236 17.508251,14.1294881 C18.1310883,13.1754683 18.5950704,12.1794988 18.9007463,11.1413689 C19.2060421,10.1030284 19.3588167,9.06308749 19.3588167,8.0207458 C19.3588167,7.79625569 19.354763,7.6279934 19.3466978,7.51570623 C20.1104441,6.96282036 20.7614463,6.29330915 21.3,5.50784648 L21.3,5.50784648 Z"></path></g></g></svg>