<?xml version="1.0" encoding="utf-8"?>
<!-- Generator: Adobe Illustrator 21.1.0, SVG Export Plug-In . SVG Version: 6.00 Build 0)  -->
<svg version="1.1" id="Layer_1" xmlns="http://www.w3.org/2000/svg" xmlns:xlink="http://www.w3.org/1999/xlink" x="0px" y="0px"
	 viewBox="0 0 512 512" style="enable-background:new 0 0 512 512;" xml:space="preserve">
<g>
	<path d="M469,493.6V110l38.1,0L475.3,4H36.7L5.2,110c0,0,0,0,37.8,0v383.6H2V510h508v-16.4H469z M49.3,20.4h413.5l21.6,74.5H27.7
		L49.3,20.4z M127,493.6v-283h264.7v283H127z M453,112.5v381.1h-0.4H408V194.2H110.6v299.4H59.4V112.5"/>
</g>
<line x1="425.7" y1="135.7" x2="128.3" y2="135.7"/>
<rect x="247.8" y="338.4" width="16.4" height="16.4"/>
<rect x="215.1" y="338.4" width="16.4" height="16.4"/>
<rect x="280.5" y="338.4" width="16.4" height="16.4"/>
</svg>
